<svg height="96mm" viewBox="0 0 96 96" width="96mm" xmlns="http://www.w3.org/2000/svg"><path d="m25.197266 0c-13.959056 0-25.197266 11.238208-25.197266 25.197266v133.542964h105.82617c4.18772 0 7.56055 3.37088 7.56055 7.5586v30.23633c0 4.18771-3.37283 7.55859-7.56055 7.55859h-105.82617v133.54492c0 13.95907 11.23821 25.19531 25.197266 25.19531h133.542964v-105.82617c0-4.18771 3.37088-7.55859 7.5586-7.55859h30.23633c4.18771 0 7.55859 3.37088 7.55859 7.55859v105.82617h133.54492c13.95907 0 25.19531-11.23624 25.19531-25.19531v-133.54492h-105.82617c-4.18771 0-7.55859-3.37088-7.55859-7.55859v-30.23633c0-4.18772 3.37088-7.5586 7.55859-7.5586h105.82617v-133.542964c0-13.959058-11.23624-25.197266-25.19531-25.197266h-133.54492v105.82617c0 4.18772-3.37088 7.56055-7.55859 7.56055h-30.23633c-4.18772 0-7.5586-3.37283-7.5586-7.56055v-105.82617z" fill="#b22400" stroke-width="2.4189" transform="matrix(.26458332347 0 0 .26458332347 -.00000018644 -.00000008274)"/></svg>