<?xml version="1.0" encoding="UTF-8" standalone="no"?>
<svg
   xmlns:dc="http://purl.org/dc/elements/1.1/"
   xmlns:cc="http://creativecommons.org/ns#"
   xmlns:rdf="http://www.w3.org/1999/02/22-rdf-syntax-ns#"
   xmlns:svg="http://www.w3.org/2000/svg"
   xmlns="http://www.w3.org/2000/svg"
   xmlns:sodipodi="http://sodipodi.sourceforge.net/DTD/sodipodi-0.dtd"
   xmlns:inkscape="http://www.inkscape.org/namespaces/inkscape"
   width="503.99982mm"
   height="96.000008mm"
   viewBox="0 0 503.99982 96.000008"
   version="1.1"
   id="svg8"
   inkscape:version="1.0.1 (c497b03c, 2020-09-10)"
   sodipodi:docname="xiang.svg">
  <defs
     id="defs2" />
  <sodipodi:namedview
     id="base"
     pagecolor="#ffffff"
     bordercolor="#666666"
     borderopacity="1.0"
     inkscape:pageopacity="0.0"
     inkscape:pageshadow="2"
     inkscape:zoom="0.35"
     inkscape:cx="1215.2903"
     inkscape:cy="560"
     inkscape:document-units="mm"
     inkscape:current-layer="layer1"
     inkscape:document-rotation="0"
     showgrid="false"
     inkscape:object-nodes="true"
     fit-margin-top="0"
     fit-margin-left="0"
     fit-margin-right="0"
     fit-margin-bottom="0"
     inkscape:window-width="2496"
     inkscape:window-height="1387"
     inkscape:window-x="64"
     inkscape:window-y="25"
     inkscape:window-maximized="1" />
  <metadata
     id="metadata5">
    <rdf:RDF>
      <cc:Work
         rdf:about="">
        <dc:format>image/svg+xml</dc:format>
        <dc:type
           rdf:resource="http://purl.org/dc/dcmitype/StillImage" />
        <dc:title></dc:title>
      </cc:Work>
    </rdf:RDF>
  </metadata>
  <g
     inkscape:label="图层 1"
     inkscape:groupmode="layer"
     id="layer1">
    <path
       id="rect845"
       style="fill:#b22400;stroke-width:0.640001"
       d="M 6.66678,0 C 2.97344,0 0,2.97344 0,6.66677 v 35.33324 h 27.99984 c 1.108,0 2.0004,0.89188 2.0004,1.99988 v 8.00003 c 0,1.108 -0.8924,1.99988 -2.0004,1.99988 H 0 v 35.33376 c 0,3.69334 2.97344,6.66626 6.66678,6.66626 H 42.00002 V 67.99998 c 0,-1.108 0.89188,-1.99988 1.99988,-1.99988 h 8.00003 c 1.108,0 1.99988,0.89188 1.99988,1.99988 v 27.99984 h 35.33375 c 3.69334,0 6.66626,-2.97292 6.66626,-6.66626 V 53.9998 H 67.99998 c -1.108,0 -1.99987,-0.89188 -1.99987,-1.99988 v -8.00003 c 0,-1.108 0.89187,-1.99988 1.99987,-1.99988 H 95.99982 V 6.66677 C 95.99982,2.97344 93.0269,0 89.33356,0 H 53.99981 v 27.99984 c 0,1.108 -0.89188,2.00039 -1.99988,2.00039 H 43.9999 c -1.108,0 -1.99988,-0.89239 -1.99988,-2.00039 V 0 Z" />
    <path
       id="rect845-4"
       style="fill:#b22400;fill-opacity:0.9;stroke-width:0.640001"
       d="M 108.66677,0 C 104.97344,0 102,2.97344 102,6.66677 v 17.33331 h 95.99982 V 6.66677 C 197.99982,2.97344 195.0269,0 191.33356,0 Z M 102,35.99987 v 53.33369 c 0,3.69334 2.97344,6.66626 6.66677,6.66626 h 82.66679 c 3.69334,0 6.66626,-2.97292 6.66626,-6.66626 V 35.99987 Z" />
    <path
       id="rect845-3"
       style="fill:#b22400;fill-opacity:0.8;stroke-width:0.640001"
       d="M 210.66678,0 C 206.97344,0 204,2.97344 204,6.66678 v 82.66678 c 0,3.69334 2.97344,6.66626 6.66678,6.66626 h 35.33324 V 56.0002 c 0,-1.108 0.89188,-2.00039 1.99988,-2.00039 h 8.00003 c 1.108,0 1.99988,0.89239 1.99988,2.00039 v 39.99962 h 35.33375 c 3.69334,0 6.66626,-2.97292 6.66626,-6.66626 V 6.66678 C 299.99982,2.97344 297.0269,0 293.33356,0 Z m 19.33318,24.00009 h 43.9999 c 1.108,0 2.0004,0.89187 2.0004,1.99987 v 8.00003 c 0,1.108 -0.8924,1.99988 -2.0004,1.99988 h -43.9999 c -1.108,0 -1.99987,-0.89188 -1.99987,-1.99988 v -8.00003 c 0,-1.108 0.89187,-1.99987 1.99987,-1.99987 z" />
    <path
       id="rect845-5"
       style="fill:#b22400;fill-opacity:0.7;stroke-width:0.640001"
       d="M 312.66678,0 C 308.97344,0 306,2.97344 306,6.66678 v 82.66678 c 0,3.69334 2.97344,6.66626 6.66678,6.66626 h 17.33331 V 32.00011 c 0,-1.108 0.89187,-1.99988 1.99987,-1.99988 h 8.00003 c 1.108,0 1.99988,0.89188 1.99988,1.99988 v 63.99971 h 53.33369 c 3.69334,0 6.66626,-2.97292 6.66626,-6.66626 V 6.66678 C 401.99982,2.97344 399.0269,0 395.33356,0 h -17.3333 v 64.00022 c 0,1.108 -0.8924,1.99988 -2.0004,1.99988 h -8.00003 c -1.108,0 -1.99988,-0.89188 -1.99988,-1.99988 V 0 Z" />
    <path
       id="rect845-7"
       style="fill:#b22400;fill-opacity:0.6;stroke-width:0.640001"
       d="M 414.66678,1.8e-4 C 410.97344,1.8e-4 408,2.97363 408,6.66696 v 82.66679 c 0,3.69333 2.97344,6.66626 6.66678,6.66626 h 82.66678 c 3.69334,0 6.66626,-2.97293 6.66626,-6.66626 v -53.3337 h -53.9998 v 24.00009 h 27.99984 c 1.108,0 2.0004,0.89188 2.0004,1.99988 v 8.00003 c 0,1.10799 -0.8924,2.00039 -2.0004,2.00039 h -29.99972 -8.00003 c -0.0693,0 -0.13775,-0.004 -0.20515,-0.0104 -0.12114,-0.0122 -0.23825,-0.0365 -0.35192,-0.0693 -0.0128,-0.004 -0.0261,-0.006 -0.0388,-0.0104 -1.5e-4,-5e-5 -2.6e-4,5e-5 -5.3e-4,0 -0.0166,-0.005 -0.0321,-0.0125 -0.0486,-0.0181 -0.10737,-0.0364 -0.21184,-0.0796 -0.31006,-0.13281 -0.0892,-0.0483 -0.17243,-0.10503 -0.25269,-0.16588 -0.0218,-0.0165 -0.0446,-0.0317 -0.0656,-0.0491 -1e-4,-8e-5 -5.3e-4,8e-5 -5.3e-4,0 -0.0234,-0.0193 -0.0446,-0.0411 -0.0672,-0.0615 -0.0249,-0.0225 -0.0507,-0.044 -0.0744,-0.0677 -0.0215,-0.0215 -0.041,-0.0448 -0.0615,-0.0672 -0.0657,-0.072 -0.12772,-0.14731 -0.18242,-0.22841 -0.0717,-0.10637 -0.1335,-0.2198 -0.18397,-0.33952 -6e-5,-1.5e-4 6e-5,-2.6e-4 0,-5.3e-4 -0.0252,-0.0597 -0.0478,-0.1209 -0.0672,-0.18345 -5e-5,-1.6e-4 5e-5,-2.6e-4 0,-5.3e-4 -0.0194,-0.0627 -0.0358,-0.1265 -0.0491,-0.19172 -0.0266,-0.13043 -0.0403,-0.26561 -0.0403,-0.40411 V 61.99981 33.99997 25.99994 c 0,-0.1385 0.0138,-0.27368 0.0403,-0.40411 0.0266,-0.13043 0.0658,-0.25596 0.11628,-0.37568 0.0505,-0.11972 0.11222,-0.23367 0.18396,-0.34003 0.0717,-0.10637 0.15354,-0.20522 0.24392,-0.29559 0.0904,-0.0904 0.18922,-0.17217 0.29559,-0.24392 0.3191,-0.21522 0.70432,-0.34054 1.11982,-0.34054 h 8.00003 55.99968 V 6.66678 C 503.99975,2.97345 501.02683,0 497.33349,0 Z" />
  </g>
</svg>
