<svg height="96.000008mm" viewBox="0 0 503.99982 96.000008" width="503.99982mm" xmlns="http://www.w3.org/2000/svg"><g fill="#b22400" stroke-width=".640001"><path d="m6.66678 0c-3.69334 0-6.66678 2.97344-6.66678 6.66677v35.33324h27.99984c1.108 0 2.0004.89188 2.0004 1.99988v8.00003c0 1.108-.8924 1.99988-2.0004 1.99988h-27.99984v35.33376c0 3.69334 2.97344 6.66626 6.66678 6.66626h35.33324v-27.99984c0-1.108.89188-1.99988 1.99988-1.99988h8.00003c1.108 0 1.99988.89188 1.99988 1.99988v27.99984h35.33375c3.69334 0 6.66626-2.97292 6.66626-6.66626v-35.33376h-27.99984c-1.108 0-1.99987-.89188-1.99987-1.99988v-8.00003c0-1.108.89187-1.99988 1.99987-1.99988h27.99984v-35.33324c0-3.69333-2.97292-6.66677-6.66626-6.66677h-35.33375v27.99984c0 1.108-.89188 2.00039-1.99988 2.00039h-8.00003c-1.108 0-1.99988-.89239-1.99988-2.00039v-27.99984z"/><path d="m108.66677 0c-3.69333 0-6.66677 2.97344-6.66677 6.66677v17.33331h95.99982v-17.33331c0-3.69333-2.97292-6.66677-6.66626-6.66677zm-6.66677 35.99987v53.33369c0 3.69334 2.97344 6.66626 6.66677 6.66626h82.66679c3.69334 0 6.66626-2.97292 6.66626-6.66626v-53.33369z" fill-opacity=".9"/><path d="m210.66678 0c-3.69334 0-6.66678 2.97344-6.66678 6.66678v82.66678c0 3.69334 2.97344 6.66626 6.66678 6.66626h35.33324v-39.99962c0-1.108.89188-2.00039 1.99988-2.00039h8.00003c1.108 0 1.99988.89239 1.99988 2.00039v39.99962h35.33375c3.69334 0 6.66626-2.97292 6.66626-6.66626v-82.66678c0-3.69334-2.97292-6.66678-6.66626-6.66678zm19.33318 24.00009h43.9999c1.108 0 2.0004.89187 2.0004 1.99987v8.00003c0 1.108-.8924 1.99988-2.0004 1.99988h-43.9999c-1.108 0-1.99987-.89188-1.99987-1.99988v-8.00003c0-1.108.89187-1.99987 1.99987-1.99987z" fill-opacity=".8"/><path d="m312.66678 0c-3.69334 0-6.66678 2.97344-6.66678 6.66678v82.66678c0 3.69334 2.97344 6.66626 6.66678 6.66626h17.33331v-63.99971c0-1.108.89187-1.99988 1.99987-1.99988h8.00003c1.108 0 1.99988.89188 1.99988 1.99988v63.99971h53.33369c3.69334 0 6.66626-2.97292 6.66626-6.66626v-82.66678c0-3.69334-2.97292-6.66678-6.66626-6.66678h-17.3333v64.00022c0 1.108-.8924 1.99988-2.0004 1.99988h-8.00003c-1.108 0-1.99988-.89188-1.99988-1.99988v-64.00022z" fill-opacity=".7"/><path d="m414.66678.00018c-3.69334 0-6.66678 2.97345-6.66678 6.66678v82.66679c0 3.69333 2.97344 6.66626 6.66678 6.66626h82.66678c3.69334 0 6.66626-2.97293 6.66626-6.66626v-53.3337h-53.9998v24.00009h27.99984c1.108 0 2.0004.89188 2.0004 1.99988v8.00003c0 1.10799-.8924 2.00039-2.0004 2.00039h-29.99972-8.00003c-.0693 0-.13775-.004-.20515-.0104-.12114-.0122-.23825-.0365-.35192-.0693-.0128-.004-.0261-.006-.0388-.0104-.00015-.00005-.00026.00005-.00053 0-.0166-.005-.0321-.0125-.0486-.0181-.10737-.0364-.21184-.0796-.31006-.13281-.0892-.0483-.17243-.10503-.25269-.16588-.0218-.0165-.0446-.0317-.0656-.0491-.0001-.00008-.00053.00008-.00053 0-.0234-.0193-.0446-.0411-.0672-.0615-.0249-.0225-.0507-.044-.0744-.0677-.0215-.0215-.041-.0448-.0615-.0672-.0657-.072-.12772-.14731-.18242-.22841-.0717-.10637-.1335-.2198-.18397-.33952-.00006-.00015.00006-.00026 0-.00053-.0252-.0597-.0478-.1209-.0672-.18345-.00005-.00016.00005-.00026 0-.00053-.0194-.0627-.0358-.1265-.0491-.19172-.0266-.13043-.0403-.26561-.0403-.40411v-7.99997-27.99984-8.00003c0-.1385.0138-.27368.0403-.40411.0266-.13043.0658-.25596.11628-.37568.0505-.11972.11222-.23367.18396-.34003.0717-.10637.15354-.20522.24392-.29559.0904-.0904.18922-.17217.29559-.24392.3191-.21522.70432-.34054 1.11982-.34054h8.00003 55.99968v-17.33329c.00003-3.69333-2.97289-6.66678-6.66623-6.66678z" fill-opacity=".6"/></g></svg>